<svg width="24" height="34" viewBox="0 0 24 34" fill="none" xmlns="http://www.w3.org/2000/svg">
<path d="M12 0C5.38351 0 0 5.47094 0 12.1956C0 16.8601 1.20972 18.48 11.093 33.5073C11.2954 33.8152 11.6357 34 12 34C12.3643 34 12.7045 33.8152 12.907 33.5074C22.7899 18.4852 24 16.8113 24 12.1957C24 5.47095 18.6165 0 12 0ZM12 17.7391C8.99222 17.7391 6.54547 15.2525 6.54547 12.1956C6.54547 9.13883 8.99222 6.65218 12 6.65218C15.0078 6.65218 17.4545 9.13883 17.4545 12.1956C17.4545 15.2525 15.0078 17.7391 12 17.7391Z" fill="#FF5916"/>
</svg>
