<svg width="20" height="18" viewBox="0 0 20 18" fill="none" xmlns="http://www.w3.org/2000/svg">
<path fill-rule="evenodd" clip-rule="evenodd" d="M17.5 2.57143H15.625L15 1.28571C14.6319 0.538071 14.44 0 13.75 0H6.25C5.56 0 5.33125 0.613286 5 1.28571L4.375 2.57143H2.5C1.11937 2.57143 0 3.72279 0 5.14286V15.4286C0 16.8486 1.11937 18 2.5 18H17.5C18.8806 18 20 16.8486 20 15.4286V5.14286C20 3.72279 18.8806 2.57143 17.5 2.57143ZM10 15.4286C7.23875 15.4286 5 13.1259 5 10.2857C5 7.44557 7.23875 5.14286 10 5.14286C12.7613 5.14286 15 7.44557 15 10.2857C15 13.1259 12.7613 15.4286 10 15.4286ZM10 6.42857C7.92938 6.42857 6.25 8.15593 6.25 10.2857C6.25 12.4155 7.92938 14.1429 10 14.1429C12.0706 14.1429 13.75 12.4155 13.75 10.2857C13.75 8.15593 12.0706 6.42857 10 6.42857Z" fill="white"/>
</svg>
