<svg width="29" height="29" viewBox="0 0 29 29" fill="none" xmlns="http://www.w3.org/2000/svg">
<mask id="path-1-inside-1_35_20" fill="white">
<path fill-rule="evenodd" clip-rule="evenodd" d="M12.3158 0.702271H16.3254C18.4134 0.702258 20.0505 0.702258 21.3583 0.826604C22.6912 0.953347 23.7827 1.21613 24.745 1.80576C25.7526 2.42322 26.5997 3.27039 27.2172 4.27798C27.8067 5.24017 28.0695 6.33166 28.1962 7.66466C28.3206 8.97243 28.3206 10.6094 28.3206 12.6975V14.0873C28.3206 15.5737 28.3206 16.7391 28.2564 17.6805C28.191 18.6383 28.056 19.4355 27.7506 20.1726C26.9906 22.0075 25.5327 23.4653 23.6979 24.2253C22.6496 24.6595 21.4555 24.7559 19.8207 24.784C19.2489 24.7939 18.8867 24.8012 18.6106 24.8317C18.3526 24.8603 18.2526 24.9021 18.194 24.9363C18.1323 24.9721 18.0481 25.0376 17.9021 25.2379C17.744 25.4549 17.5655 25.7545 17.2824 26.233L16.5764 27.4257C15.5689 29.1278 13.0723 29.1278 12.0649 27.4257L11.3589 26.233C11.0757 25.7545 10.8971 25.4549 10.739 25.2379C10.593 25.0376 10.5089 24.9721 10.4471 24.9363C10.3886 24.9021 10.2886 24.8603 10.0306 24.8317C9.7545 24.8012 9.39229 24.7939 8.82045 24.784C7.18567 24.7559 5.99165 24.6595 4.94331 24.2253C3.10845 23.4653 1.65066 22.0075 0.890633 20.1726C0.58529 19.4355 0.450199 18.6383 0.384849 17.6805C0.320605 16.7391 0.320618 15.5737 0.320618 14.0873V12.6975C0.320605 10.6094 0.320605 8.97243 0.444951 7.66466C0.571693 6.33166 0.834477 5.24017 1.4241 4.27798C2.04156 3.27039 2.88873 2.42322 3.89632 1.80576C4.85851 1.21613 5.95 0.953347 7.28299 0.826604C8.59076 0.702258 10.2277 0.702258 12.3158 0.702271ZM7.4679 2.77132C6.2779 2.88447 5.52069 3.10146 4.91702 3.47139C4.17227 3.92777 3.54611 4.55393 3.08973 5.29868C2.7198 5.90235 2.50281 6.65956 2.38966 7.84957C2.27514 9.0541 2.27411 10.5984 2.27411 12.7488V14.0511C2.27411 15.5815 2.27464 16.6804 2.33381 17.5475C2.39237 18.4059 2.5051 18.9656 2.69542 19.4251C3.25718 20.7813 4.33468 21.8587 5.69089 22.4206C6.36241 22.6987 7.21911 22.8027 8.85411 22.8309L8.89555 22.8316C9.41387 22.8406 9.86808 22.8482 10.2456 22.89C10.6513 22.935 11.048 23.0257 11.4293 23.2475C11.8074 23.4675 12.08 23.7612 12.3178 24.0873C12.5373 24.3888 12.763 24.7701 13.0188 25.2021L13.7459 26.4307C13.997 26.8547 14.6442 26.8547 14.8952 26.4307L15.6224 25.2021C15.8781 24.7701 16.1038 24.3888 16.3235 24.0873C16.5611 23.7612 16.8338 23.4675 17.2119 23.2475C17.5932 23.0257 17.9899 22.935 18.3956 22.89C18.7731 22.8482 19.2273 22.8406 19.7456 22.8316L19.7871 22.8309C21.4221 22.8027 22.2789 22.6987 22.9503 22.4206C24.3066 21.8587 25.384 20.7813 25.9458 19.4251C26.1361 18.9656 26.2489 18.4059 26.3075 17.5475C26.3666 16.6804 26.3671 15.5815 26.3671 14.0511V12.7488C26.3671 10.5984 26.3661 9.0541 26.2516 7.84957C26.1384 6.65956 25.9215 5.90235 25.5515 5.29868C25.0951 4.55393 24.469 3.92777 23.7242 3.47139C23.1206 3.10146 22.3634 2.88447 21.1733 2.77132C19.9688 2.65679 18.4245 2.65576 16.2741 2.65576H12.3671C10.2167 2.65576 8.67243 2.65679 7.4679 2.77132Z"/>
</mask>
<path fill-rule="evenodd" clip-rule="evenodd" d="M12.3158 0.702271H16.3254C18.4134 0.702258 20.0505 0.702258 21.3583 0.826604C22.6912 0.953347 23.7827 1.21613 24.745 1.80576C25.7526 2.42322 26.5997 3.27039 27.2172 4.27798C27.8067 5.24017 28.0695 6.33166 28.1962 7.66466C28.3206 8.97243 28.3206 10.6094 28.3206 12.6975V14.0873C28.3206 15.5737 28.3206 16.7391 28.2564 17.6805C28.191 18.6383 28.056 19.4355 27.7506 20.1726C26.9906 22.0075 25.5327 23.4653 23.6979 24.2253C22.6496 24.6595 21.4555 24.7559 19.8207 24.784C19.2489 24.7939 18.8867 24.8012 18.6106 24.8317C18.3526 24.8603 18.2526 24.9021 18.194 24.9363C18.1323 24.9721 18.0481 25.0376 17.9021 25.2379C17.744 25.4549 17.5655 25.7545 17.2824 26.233L16.5764 27.4257C15.5689 29.1278 13.0723 29.1278 12.0649 27.4257L11.3589 26.233C11.0757 25.7545 10.8971 25.4549 10.739 25.2379C10.593 25.0376 10.5089 24.9721 10.4471 24.9363C10.3886 24.9021 10.2886 24.8603 10.0306 24.8317C9.7545 24.8012 9.39229 24.7939 8.82045 24.784C7.18567 24.7559 5.99165 24.6595 4.94331 24.2253C3.10845 23.4653 1.65066 22.0075 0.890633 20.1726C0.58529 19.4355 0.450199 18.6383 0.384849 17.6805C0.320605 16.7391 0.320618 15.5737 0.320618 14.0873V12.6975C0.320605 10.6094 0.320605 8.97243 0.444951 7.66466C0.571693 6.33166 0.834477 5.24017 1.4241 4.27798C2.04156 3.27039 2.88873 2.42322 3.89632 1.80576C4.85851 1.21613 5.95 0.953347 7.28299 0.826604C8.59076 0.702258 10.2277 0.702258 12.3158 0.702271ZM7.4679 2.77132C6.2779 2.88447 5.52069 3.10146 4.91702 3.47139C4.17227 3.92777 3.54611 4.55393 3.08973 5.29868C2.7198 5.90235 2.50281 6.65956 2.38966 7.84957C2.27514 9.0541 2.27411 10.5984 2.27411 12.7488V14.0511C2.27411 15.5815 2.27464 16.6804 2.33381 17.5475C2.39237 18.4059 2.5051 18.9656 2.69542 19.4251C3.25718 20.7813 4.33468 21.8587 5.69089 22.4206C6.36241 22.6987 7.21911 22.8027 8.85411 22.8309L8.89555 22.8316C9.41387 22.8406 9.86808 22.8482 10.2456 22.89C10.6513 22.935 11.048 23.0257 11.4293 23.2475C11.8074 23.4675 12.08 23.7612 12.3178 24.0873C12.5373 24.3888 12.763 24.7701 13.0188 25.2021L13.7459 26.4307C13.997 26.8547 14.6442 26.8547 14.8952 26.4307L15.6224 25.2021C15.8781 24.7701 16.1038 24.3888 16.3235 24.0873C16.5611 23.7612 16.8338 23.4675 17.2119 23.2475C17.5932 23.0257 17.9899 22.935 18.3956 22.89C18.7731 22.8482 19.2273 22.8406 19.7456 22.8316L19.7871 22.8309C21.4221 22.8027 22.2789 22.6987 22.9503 22.4206C24.3066 21.8587 25.384 20.7813 25.9458 19.4251C26.1361 18.9656 26.2489 18.4059 26.3075 17.5475C26.3666 16.6804 26.3671 15.5815 26.3671 14.0511V12.7488C26.3671 10.5984 26.3661 9.0541 26.2516 7.84957C26.1384 6.65956 25.9215 5.90235 25.5515 5.29868C25.0951 4.55393 24.469 3.92777 23.7242 3.47139C23.1206 3.10146 22.3634 2.88447 21.1733 2.77132C19.9688 2.65679 18.4245 2.65576 16.2741 2.65576H12.3671C10.2167 2.65576 8.67243 2.65679 7.4679 2.77132Z" fill="white"/>
<path d="M12.3158 0.702271L12.3158 10.7023H12.3158V0.702271ZM16.3254 0.702271V10.7023H16.3255L16.3254 0.702271ZM21.3583 0.826604L22.3048 -9.12849L22.3048 -9.1285L21.3583 0.826604ZM24.745 1.80576L29.9699 -6.72066L29.9695 -6.72089L24.745 1.80576ZM27.2172 4.27798L35.7438 -0.946578L35.7437 -0.94685L27.2172 4.27798ZM28.1962 7.66466L18.2411 8.61101L18.2412 8.61141L28.1962 7.66466ZM28.2564 17.6805L38.2332 18.3614L38.2332 18.361L28.2564 17.6805ZM27.7506 20.1726L18.5121 16.345L18.5118 16.3457L27.7506 20.1726ZM23.6979 24.2253L27.5247 33.4641L27.5248 33.4641L23.6979 24.2253ZM19.8207 24.784L19.6487 14.7855L19.6477 14.7855L19.8207 24.784ZM18.6106 24.8317L17.5135 14.8921L17.5068 14.8928L18.6106 24.8317ZM18.194 24.9363L23.2123 33.5859L23.2189 33.5821L23.2255 33.5782L18.194 24.9363ZM17.9021 25.2379L9.82092 19.3477L9.82023 19.3487L17.9021 25.2379ZM17.2824 26.233L25.8877 31.3269L25.8886 31.3255L17.2824 26.233ZM16.5764 27.4257L7.97101 22.3318L7.9708 22.3321L16.5764 27.4257ZM12.0649 27.4257L20.6704 22.3321L20.6702 22.3317L12.0649 27.4257ZM11.3589 26.233L2.75308 31.3262L2.75353 31.3269L11.3589 26.233ZM10.739 25.2379L18.8216 19.3496L18.8195 19.3467L10.739 25.2379ZM10.4471 24.9363L5.41057 33.5753L5.4201 33.5809L5.42965 33.5864L10.4471 24.9363ZM10.0306 24.8317L11.1343 14.8928L11.1277 14.892L10.0306 24.8317ZM8.82045 24.784L8.99351 14.7855L8.9925 14.7855L8.82045 24.784ZM4.94331 24.2253L1.11641 33.4641L1.11676 33.4642L4.94331 24.2253ZM0.890633 20.1726L10.1294 16.3458L10.1293 16.3456L0.890633 20.1726ZM0.384849 17.6805L10.3617 16.9998L10.3616 16.9996L0.384849 17.6805ZM0.320618 12.6975H10.3206V12.6974L0.320618 12.6975ZM0.444951 7.66466L10.4001 8.61122L10.4001 8.6112L0.444951 7.66466ZM1.4241 4.27798L-7.10229 -0.94701L-7.1023 -0.946997L1.4241 4.27798ZM3.89632 1.80576L-1.32868 -6.72063L-1.32869 -6.72063L3.89632 1.80576ZM7.28299 0.826604L8.22954 10.7817L8.22955 10.7817L7.28299 0.826604ZM7.4679 2.77132L6.52137 -7.18378L6.52136 -7.18378L7.4679 2.77132ZM4.91702 3.47139L-0.307954 -5.05502L-0.308015 -5.05499L4.91702 3.47139ZM3.08973 5.29868L-5.43666 0.0736665L-5.43669 0.0737278L3.08973 5.29868ZM2.38966 7.84957L-7.56544 6.90303L-7.56544 6.90304L2.38966 7.84957ZM2.33381 17.5475L12.3106 16.8668L12.3106 16.8667L2.33381 17.5475ZM2.69542 19.4251L11.9343 15.5983L11.9342 15.5981L2.69542 19.4251ZM5.69089 22.4206L1.86366 31.6592L1.86375 31.6592L5.69089 22.4206ZM8.85411 22.8309L8.68128 32.8294L8.68918 32.8296L8.69708 32.8297L8.85411 22.8309ZM8.89555 22.8316L9.06889 12.8331L9.06073 12.8329L9.05257 12.8328L8.89555 22.8316ZM10.2456 22.89L11.3465 12.9508L11.3462 12.9508L10.2456 22.89ZM11.4293 23.2475L16.4577 14.6037L16.4575 14.6036L11.4293 23.2475ZM12.3178 24.0873L20.4012 18.2002L20.3976 18.1952L12.3178 24.0873ZM13.0188 25.2021L21.6247 20.1091L21.6236 20.1072L13.0188 25.2021ZM13.7459 26.4307L5.13998 31.5236L5.14126 31.5258L13.7459 26.4307ZM14.8952 26.4307L6.28968 21.3371L6.28941 21.3375L14.8952 26.4307ZM15.6224 25.2021L24.2279 30.2957L24.2283 30.295L15.6224 25.2021ZM16.3235 24.0873L8.2421 18.1973L8.24169 18.1979L16.3235 24.0873ZM17.2119 23.2475L12.1842 14.6033L12.183 14.604L17.2119 23.2475ZM18.3956 22.89L17.295 12.9508L17.2948 12.9508L18.3956 22.89ZM19.7456 22.8316L19.589 12.8328L19.5806 12.8329L19.5722 12.8331L19.7456 22.8316ZM19.7871 22.8309L19.9438 32.8297L19.9519 32.8296L19.96 32.8294L19.7871 22.8309ZM22.9503 22.4206L19.1232 13.1819L19.123 13.182L22.9503 22.4206ZM25.9458 19.4251L35.1845 23.2522L35.1849 23.2511L25.9458 19.4251ZM26.3075 17.5475L36.2843 18.2287L36.2843 18.2278L26.3075 17.5475ZM26.2516 7.84957L36.2068 6.90347L36.2067 6.90282L26.2516 7.84957ZM25.5515 5.29868L17.0248 10.5233L17.0255 10.5243L25.5515 5.29868ZM23.7242 3.47139L18.499 11.9976L18.4994 11.9979L23.7242 3.47139ZM21.1733 2.77132L20.2268 12.7264L20.2268 12.7264L21.1733 2.77132ZM12.3158 10.7023H16.3254V-9.29773H12.3158V10.7023ZM16.3255 10.7023C18.5976 10.7023 19.6848 10.7126 20.4117 10.7817L22.3048 -9.1285C20.4161 -9.30808 18.2293 -9.29774 16.3254 -9.29773L16.3255 10.7023ZM20.4117 10.7817C20.7074 10.8098 20.6974 10.8286 20.5181 10.7789C20.3044 10.7196 19.9374 10.5879 19.5204 10.3324L29.9695 -6.72089C27.1726 -8.43464 24.3707 -8.93206 22.3048 -9.12849L20.4117 10.7817ZM19.52 10.3322C19.182 10.1251 18.8978 9.8409 18.6907 9.50282L35.7437 -0.94685C34.3016 -3.30013 32.3231 -5.27864 29.9699 -6.72066L19.52 10.3322ZM18.6905 9.50255C18.4349 9.08545 18.3032 8.71837 18.244 8.50463C18.1942 8.32537 18.213 8.31533 18.2411 8.61101L38.1514 6.71832C37.955 4.65228 37.4575 1.85024 35.7438 -0.946578L18.6905 9.50255ZM18.2412 8.61141C18.3103 9.33818 18.3206 10.4253 18.3206 12.6975H38.3206C38.3206 10.7936 38.331 8.60669 38.1513 6.71791L18.2412 8.61141ZM18.3206 12.6975V14.0873H38.3206V12.6975H18.3206ZM18.3206 14.0873C18.3206 15.7037 18.3153 16.4762 18.2796 17L38.2332 18.361C38.3259 17.0021 38.3206 15.4437 38.3206 14.0873H18.3206ZM18.2796 16.9995C18.249 17.4476 18.2286 17.0293 18.5121 16.345L36.9891 24.0002C37.8834 21.8416 38.133 19.8291 38.2332 18.3614L18.2796 16.9995ZM18.5118 16.3457C18.7667 15.7303 19.2556 15.2415 19.871 14.9866L27.5248 33.4641C31.8099 31.6891 35.2144 28.2846 36.9894 23.9995L18.5118 16.3457ZM19.871 14.9865C20.1137 14.886 20.3227 14.823 20.4766 14.7849C20.625 14.7481 20.7086 14.738 20.6982 14.7393C20.6843 14.7411 20.6017 14.751 20.4176 14.7611C20.2321 14.7714 19.988 14.7797 19.6487 14.7855L19.9928 34.7825C21.637 34.7542 24.5515 34.6957 27.5247 33.4641L19.871 14.9865ZM19.6477 14.7855C19.2682 14.7921 18.3593 14.7987 17.5135 14.8921L19.7077 34.7713C19.5858 34.7848 19.4987 34.7908 19.4616 34.7932C19.425 34.7955 19.4175 34.7953 19.4541 34.794C19.4904 34.7928 19.549 34.7911 19.6442 34.7891C19.7395 34.787 19.8503 34.785 19.9938 34.7825L19.6477 14.7855ZM17.5068 14.8928C16.5021 15.0044 14.8787 15.295 13.1624 16.2943L23.2255 33.5782C22.5165 33.991 21.7799 34.2974 21.0536 34.5032C20.4306 34.6797 19.9443 34.7451 19.7144 34.7706L17.5068 14.8928ZM13.1757 16.2866C11.4844 17.2678 10.4323 18.5089 9.82092 19.3477L25.9834 31.128C25.841 31.3233 25.5363 31.7209 25.066 32.1802C24.5181 32.7152 23.8928 33.1911 23.2123 33.5859L13.1757 16.2866ZM9.82023 19.3487C9.31457 20.0426 8.85883 20.8318 8.67618 21.1405L25.8886 31.3255C25.9596 31.2055 26.0138 31.114 26.0605 31.0359C26.107 30.958 26.1349 30.9122 26.1512 30.8857C26.1677 30.859 26.1608 30.8708 26.1371 30.9068C26.113 30.9435 26.0606 31.022 25.9841 31.1271L9.82023 19.3487ZM8.677 21.1391L7.97101 22.3318L25.1817 32.5195L25.8877 31.3269L8.677 21.1391ZM7.9708 22.3321C10.8354 17.4923 17.8058 17.4923 20.6704 22.3321L3.45929 32.5192C8.33887 40.7633 20.3024 40.7633 25.1819 32.5192L7.9708 22.3321ZM20.6702 22.3317L19.9642 21.139L2.75353 31.3269L3.45953 32.5196L20.6702 22.3317ZM19.9646 21.1398C19.7816 20.8306 19.3265 20.0426 18.8216 19.3496L2.65642 31.1261C2.58012 31.0214 2.5279 30.9432 2.50395 30.9068C2.48041 30.8709 2.47368 30.8593 2.49023 30.8861C2.50664 30.9127 2.53454 30.9586 2.58113 31.0366C2.62781 31.1147 2.68207 31.2062 2.75308 31.3262L19.9646 21.1398ZM18.8195 19.3467C18.2088 18.509 17.1566 17.2675 15.4646 16.2861L5.42965 33.5864C4.74855 33.1913 4.12316 32.7153 3.57543 32.1805C3.10523 31.7214 2.80069 31.324 2.65855 31.1291L18.8195 19.3467ZM15.4837 16.2972C13.764 15.2946 12.1371 15.0041 11.1343 14.8928L8.92689 34.7706C8.69709 34.7451 8.21057 34.6797 7.58718 34.5031C6.86065 34.2972 6.12224 33.9902 5.41057 33.5753L15.4837 16.2972ZM11.1277 14.892C10.2819 14.7987 9.37301 14.7921 8.99351 14.7855L8.64739 34.7825C8.79088 34.785 8.90167 34.787 8.997 34.7891C9.09214 34.7911 9.15075 34.7928 9.18711 34.794C9.22375 34.7953 9.21621 34.7955 9.17967 34.7932C9.14256 34.7908 9.05547 34.7848 8.93354 34.7713L11.1277 14.892ZM8.9925 14.7855C8.65321 14.7797 8.40913 14.7714 8.22361 14.7611C8.03953 14.751 7.95692 14.7411 7.94308 14.7393C7.9327 14.738 8.01619 14.7481 8.16462 14.7849C8.31844 14.823 8.52736 14.886 8.76987 14.9864L1.11676 33.4642C4.08983 34.6956 7.00404 34.7542 8.64841 34.7825L8.9925 14.7855ZM8.77021 14.9866C9.38564 15.2415 9.87453 15.7304 10.1294 16.3458L-8.34816 23.9995C-6.57322 28.2845 -3.16874 31.6891 1.11641 33.4641L8.77021 14.9866ZM10.1293 16.3456C10.4126 17.0294 10.3922 17.4472 10.3617 16.9998L-9.59196 18.3611C-9.49178 19.8294 -9.24204 21.8416 -8.34808 23.9996L10.1293 16.3456ZM10.3616 16.9996C10.3259 16.4761 10.3206 15.7039 10.3206 14.0873H-9.67938C-9.67938 15.4435 -9.6847 17.0022 -9.59194 18.3614L10.3616 16.9996ZM10.3206 14.0873V12.6975H-9.67938V14.0873H10.3206ZM10.3206 12.6974C10.3206 10.4253 10.3309 9.33808 10.4001 8.61122L-9.51015 6.71811C-9.68973 8.60679 -9.67939 10.7936 -9.67938 12.6976L10.3206 12.6974ZM10.4001 8.6112C10.4282 8.31539 10.447 8.32542 10.3972 8.50471C10.3379 8.71851 10.2062 9.08572 9.95051 9.50296L-7.1023 -0.946997C-8.81635 1.85009 -9.31374 4.6524 -9.51015 6.71813L10.4001 8.6112ZM9.9505 9.50298C9.74341 9.84092 9.45928 10.1251 9.12133 10.3321L-1.32869 -6.72063C-3.68183 -5.27861 -5.66028 -3.30015 -7.10229 -0.94701L9.9505 9.50298ZM9.12132 10.3322C8.70408 10.5878 8.33686 10.7196 8.12306 10.7789C7.94376 10.8286 7.93373 10.8098 8.22954 10.7817L6.33645 -9.1285C4.27073 -8.93209 1.46841 -8.4347 -1.32868 -6.72063L9.12132 10.3322ZM8.22955 10.7817C8.95641 10.7126 10.0436 10.7023 12.3158 10.7023L12.3159 -9.29773C10.4119 -9.29774 8.22512 -9.30808 6.33643 -9.1285L8.22955 10.7817ZM6.52136 -7.18378C4.60039 -7.00114 2.13156 -6.54995 -0.307954 -5.05502L10.142 11.9978C8.90981 12.7529 7.95541 12.7701 8.41444 12.7264L6.52136 -7.18378ZM-0.308015 -5.05499C-2.39829 -3.77405 -4.15572 -2.01661 -5.43666 0.0736665L11.6161 10.5237C11.248 11.1245 10.7428 11.6296 10.1421 11.9978L-0.308015 -5.05499ZM-5.43669 0.0737278C-6.93162 2.51324 -7.38279 4.98207 -7.56544 6.90303L12.3448 8.7961C12.3884 8.33706 12.3712 9.29146 11.6161 10.5236L-5.43669 0.0737278ZM-7.56544 6.90304C-7.73547 8.69128 -7.72589 10.7943 -7.72589 12.7488H12.2741C12.2741 10.4024 12.2857 9.41693 12.3448 8.79609L-7.56544 6.90304ZM-7.72589 12.7488V14.0511H12.2741V12.7488H-7.72589ZM-7.72589 14.0511C-7.72589 15.4431 -7.7308 16.9414 -7.643 18.2283L12.3106 16.8667C12.2801 16.4194 12.2741 15.7199 12.2741 14.0511H-7.72589ZM-7.643 18.2282C-7.54985 19.5935 -7.32305 21.3697 -6.54333 23.252L11.9342 15.5981C12.3333 16.5616 12.3346 17.2182 12.3106 16.8668L-7.643 18.2282ZM-6.54341 23.2518C-4.96659 27.0587 -1.94221 30.0826 1.86366 31.6592L9.51811 13.1819C10.6116 13.6349 11.481 14.5039 11.9343 15.5983L-6.54341 23.2518ZM1.86375 31.6592C4.46948 32.7387 7.06135 32.8014 8.68128 32.8294L9.02693 12.8324C8.70224 12.8268 8.47896 12.8184 8.32684 12.8098C8.17358 12.8012 8.1371 12.7948 8.1802 12.8003C8.22705 12.8063 8.3893 12.829 8.6287 12.8879C8.87896 12.9495 9.18325 13.0432 9.51802 13.1819L1.86375 31.6592ZM8.69708 32.8297L8.73852 32.8303L9.05257 12.8328L9.01113 12.8322L8.69708 32.8297ZM8.72221 32.8301C8.85714 32.8324 8.9596 32.8342 9.05483 32.8363C9.14791 32.8383 9.2115 32.8401 9.25693 32.8418C9.30236 32.8434 9.31348 32.8444 9.30016 32.8435C9.28732 32.8427 9.23195 32.8389 9.14497 32.8293L11.3462 12.9508C10.4056 12.8466 9.42884 12.8393 9.06889 12.8331L8.72221 32.8301ZM9.14475 32.8293C8.79394 32.7904 7.67176 32.6306 6.40106 31.8914L16.4575 14.6036C14.4242 13.4209 12.5086 13.0795 11.3465 12.9508L9.14475 32.8293ZM6.40089 31.8913C5.16064 31.1698 4.4686 30.2956 4.23795 29.9793L20.3976 18.1952C19.6913 17.2267 18.4541 15.7652 16.4577 14.6037L6.40089 31.8913ZM4.23433 29.9744C4.18054 29.9005 4.14752 29.8509 4.13795 29.8364C4.12814 29.8216 4.13203 29.8269 4.15351 29.8616C4.17501 29.8963 4.20568 29.9467 4.25111 30.0226C4.29764 30.1004 4.34756 30.1847 4.41404 30.297L21.6236 20.1072C21.4472 19.8093 20.9603 18.9678 20.4012 18.2002L4.23433 29.9744ZM4.41289 30.295L5.13998 31.5236L22.3518 21.3377L21.6247 20.1091L4.41289 30.295ZM5.14126 31.5258C9.26383 38.488 19.377 38.492 23.501 31.5238L6.28941 21.3375C9.91147 15.2174 18.7302 15.2215 22.3505 21.3356L5.14126 31.5258ZM23.5007 31.5243L24.2279 30.2957L7.0169 20.1085L6.28968 21.3371L23.5007 31.5243ZM24.2283 30.295C24.2946 30.1831 24.3444 30.099 24.3907 30.0216C24.4359 29.946 24.4664 29.896 24.4876 29.8616C24.5089 29.8273 24.5125 29.8223 24.5025 29.8375C24.4927 29.8524 24.4594 29.9024 24.4052 29.9767L8.24169 18.1979C7.68092 18.9674 7.1936 19.8099 7.01651 20.1091L24.2283 30.295ZM24.4048 29.9772C24.172 30.2967 23.4798 31.1702 22.2408 31.891L12.183 14.604C10.1879 15.7648 8.95032 17.2256 8.2421 18.1973L24.4048 29.9772ZM22.2396 31.8917C20.9694 32.6305 19.8476 32.7904 19.4964 32.8293L17.2948 12.9508C16.1322 13.0796 14.217 13.421 12.1842 14.6033L22.2396 31.8917ZM19.4961 32.8293C19.4092 32.8389 19.3539 32.8427 19.3411 32.8435C19.3277 32.8444 19.3389 32.8434 19.3843 32.8418C19.4297 32.8401 19.4933 32.8383 19.5863 32.8363C19.6815 32.8342 19.784 32.8324 19.9189 32.8301L19.5722 12.8331C19.2122 12.8393 18.2356 12.8466 17.295 12.9508L19.4961 32.8293ZM19.9022 32.8303L19.9438 32.8297L19.6305 12.8321L19.589 12.8328L19.9022 32.8303ZM19.96 32.8294C21.5797 32.8014 24.1718 32.7387 26.7777 31.6591L19.123 13.182C19.4579 13.0432 19.7623 12.9495 20.0126 12.8879C20.252 12.829 20.4142 12.8063 20.4611 12.8003C20.5041 12.7948 20.4676 12.8012 20.3144 12.8098C20.1623 12.8184 19.939 12.8268 19.6143 12.8324L19.96 32.8294ZM26.7775 31.6592C30.5838 30.0825 33.6078 27.0585 35.1845 23.2522L16.7071 15.598C17.1603 14.5042 18.0294 13.635 19.1232 13.1819L26.7775 31.6592ZM35.1849 23.2511C35.964 21.3698 36.191 19.5945 36.2843 18.2287L16.3307 16.8663C16.3068 17.2172 16.3082 16.5614 16.7067 15.599L35.1849 23.2511ZM36.2843 18.2278C36.372 16.9412 36.3671 15.443 36.3671 14.0511H16.3671C16.3671 15.72 16.3612 16.4196 16.3307 16.8672L36.2843 18.2278ZM36.3671 14.0511V12.7488H16.3671V14.0511H36.3671ZM36.3671 12.7488C36.3671 10.7941 36.3767 8.69142 36.2068 6.90347L16.2965 8.79566C16.3555 9.41678 16.3671 10.4026 16.3671 12.7488H36.3671ZM36.2067 6.90282C36.0241 4.98229 35.5729 2.513 34.0775 0.0730591L17.0255 10.5243C16.27 9.2917 16.2528 8.33684 16.2965 8.79632L36.2067 6.90282ZM34.0781 0.0741C32.7971 -2.01656 31.0394 -3.77418 28.949 -5.05515L18.4994 11.9979C17.8985 11.6297 17.3932 11.1244 17.0248 10.5233L34.0781 0.0741ZM28.9494 -5.05487C26.5098 -6.54996 24.0408 -7.00114 22.1198 -7.18379L20.2268 12.7264C20.6859 12.7701 19.7313 12.7529 18.499 11.9976L28.9494 -5.05487ZM22.1199 -7.18378C20.3316 -7.35381 18.2286 -7.34424 16.2741 -7.34424V12.6558C18.6204 12.6558 19.606 12.6674 20.2268 12.7264L22.1199 -7.18378ZM16.2741 -7.34424H12.3671V12.6558H16.2741V-7.34424ZM12.3671 -7.34424C10.4126 -7.34424 8.30961 -7.35381 6.52137 -7.18378L8.41443 12.7264C9.03526 12.6674 10.0208 12.6558 12.3671 12.6558V-7.34424Z" fill="white" mask="url(#path-1-inside-1_35_20)"/>
</svg>
