<svg width="34" height="34" viewBox="0 0 34 34" fill="none" xmlns="http://www.w3.org/2000/svg">
<path d="M7.22214 0C3.25953 0 0 3.32476 0 7.36667V26.6333C0 30.6752 3.25953 34 7.22214 34H16.7541C20.4349 34 23.5073 31.1308 23.9259 27.4833H19.4129C19.0732 28.6541 18.0389 29.4667 16.7541 29.4667H7.22214C5.64483 29.4667 4.44439 28.2422 4.44439 26.6333V7.36667C4.44439 5.7578 5.64483 4.53333 7.22214 4.53333H16.7541C18.0389 4.53333 19.0732 5.34592 19.4129 6.51667H23.9259C23.5073 2.86921 20.4349 0 16.7541 0H7.22214Z" fill="white"/>
<path d="M26.8374 11.3334C26.5318 11.3334 26.2293 11.3822 25.947 11.4771C25.6647 11.572 25.4082 11.7112 25.1921 11.8866C24.976 12.062 24.8046 12.2702 24.6877 12.4994C24.5708 12.7286 24.5106 12.9742 24.5106 13.2222C24.5106 13.4703 24.5708 13.7159 24.6877 13.9451C24.8046 14.1743 24.976 14.3825 25.1921 14.5579L25.8735 15.1111H8.62297C8.00589 15.1111 7.41408 15.3101 6.97774 15.6644C6.5414 16.0186 6.29626 16.499 6.29626 17C6.29626 17.501 6.5414 17.9814 6.97774 18.3356C7.41408 18.6899 8.00589 18.8889 8.62297 18.8889H25.8735L25.1921 19.4421C24.976 19.6175 24.8046 19.8257 24.6877 20.0549C24.5708 20.2841 24.5106 20.5297 24.5106 20.7777C24.5106 21.0258 24.5708 21.2714 24.6877 21.5006C24.8046 21.7298 24.976 21.938 25.1921 22.1134C25.4082 22.2888 25.6647 22.428 25.947 22.5229C26.2293 22.6178 26.5318 22.6667 26.8374 22.6667C27.143 22.6667 27.4455 22.6178 27.7278 22.5229C28.0101 22.428 28.2666 22.2888 28.4827 22.1134L32.7168 18.6761C33.1002 18.5199 33.423 18.2807 33.6494 17.9849C33.8759 17.6891 33.9972 17.3483 34 17C33.9994 16.6464 33.8766 16.3 33.6456 16.0003C33.4145 15.7006 33.0844 15.4595 32.6929 15.3045L28.4827 11.8866C28.2666 11.7112 28.0101 11.572 27.7278 11.4771C27.4455 11.3822 27.1429 11.3334 26.8374 11.3334Z" fill="white"/>
</svg>
