<svg width="23" height="21" viewBox="0 0 23 21" fill="none" xmlns="http://www.w3.org/2000/svg">
<path d="M7.33333 9.45829C8.48393 9.45829 9.41667 8.52558 9.41667 7.37496C9.41667 6.22437 8.48393 5.29163 7.33333 5.29163C6.18274 5.29163 5.25 6.22437 5.25 7.37496C5.25 8.52558 6.18274 9.45829 7.33333 9.45829Z" stroke="white" stroke-width="2" stroke-linecap="round" stroke-linejoin="round"/>
<path d="M5.83392 19.875C11.636 7.27085 16.4589 5.06252 21.9172 13.2396" stroke="white" stroke-width="2" stroke-linecap="round" stroke-linejoin="round"/>
<path d="M17.75 1.125H5.25001C2.94882 1.125 1.08334 2.99048 1.08334 5.29167V15.7083C1.08334 18.0095 2.94882 19.875 5.25001 19.875H17.75C20.0512 19.875 21.9167 18.0095 21.9167 15.7083V5.29167C21.9167 2.99048 20.0512 1.125 17.75 1.125Z" stroke="white" stroke-width="2" stroke-linecap="round" stroke-linejoin="round"/>
</svg>
