<svg width="38" height="38" viewBox="0 0 38 38" fill="none" xmlns="http://www.w3.org/2000/svg">
<path d="M20.8555 2.90232C20.1919 2.40638 19.86 2.1584 19.4936 2.06308C19.1704 1.97897 18.8296 1.97897 18.5064 2.06308C18.14 2.1584 17.8081 2.40638 17.1445 2.90232L4.33351 12.4765C3.47715 13.1165 3.04898 13.4365 2.7405 13.8372C2.46725 14.1922 2.26369 14.5921 2.13983 15.0173C2 15.4973 2 16.0185 2 17.061V30.1921C2 32.225 2 33.2416 2.41176 34.0181C2.77393 34.701 3.35186 35.2564 4.0627 35.6043C4.87081 36 5.9287 36 8.04444 36H11.8222C12.3512 36 12.6156 36 12.8177 35.9011C12.9954 35.8141 13.1399 35.6753 13.2304 35.5045C13.3333 35.3105 13.3333 35.0564 13.3333 34.548V22.5692C13.3333 21.5529 13.3333 21.0445 13.5392 20.6563C13.7203 20.3149 14.0093 20.0372 14.3647 19.8631C14.7687 19.6653 15.2976 19.6653 16.3556 19.6653H21.6444C22.7024 19.6653 23.2313 19.6653 23.6353 19.8631C23.9908 20.0372 24.2796 20.3149 24.4608 20.6563C24.6667 21.0445 24.6667 21.5529 24.6667 22.5692V34.548C24.6667 35.0564 24.6667 35.3105 24.7696 35.5045C24.8601 35.6753 25.0046 35.8141 25.1823 35.9011C25.3844 36 25.6489 36 26.1778 36H29.9556C32.0713 36 33.1293 36 33.9373 35.6043C34.6481 35.2564 35.2261 34.701 35.5882 34.0181C36 33.2416 36 32.225 36 30.1921V17.061C36 16.0185 36 15.4973 35.8602 15.0173C35.7363 14.5921 35.5327 14.1922 35.2596 13.8372C34.9511 13.4365 34.5229 13.1165 33.6665 12.4765L20.8555 2.90232Z" stroke="white" stroke-width="3" stroke-linecap="round" stroke-linejoin="round"/>
</svg>
