<svg width="160" height="160" viewBox="0 0 160 160" fill="none" xmlns="http://www.w3.org/2000/svg">
<path d="M79.5032 155C115.719 155 145.077 125.451 145.077 89C145.077 52.5492 115.719 23 79.5032 23C43.2875 23 13.929 52.5492 13.929 89C13.929 125.451 43.2875 155 79.5032 155Z" fill="white"/>
<path d="M15.916 136C18.097 131.6 20.7701 127.46 23.8841 123.659C31.9363 113.831 39.3774 110.788 51.4923 101.34C57.5311 96.6223 63.2384 91.497 68.5741 86" stroke="#EB5B26" stroke-width="6" stroke-linecap="round" stroke-linejoin="round"/>
<path d="M3 157L13.9664 138.509L64.6 58C59.0056 76.26 54.2167 90.1579 50.7945 99.6827C47.2811 109.516 43.2722 119.999 41.8872 135.05C41.5318 138.866 41.3688 142.698 41.3989 146.532" stroke="#EB5B26" stroke-width="6" stroke-linecap="round" stroke-linejoin="round"/>
<path d="M99.2422 13.3585C101.002 12.4399 102.655 11.3235 104.17 10.0301C107.52 7.15292 108.556 4.78609 109.097 5.01537C110.136 5.45915 107.186 14.5974 104.17 25.0743C101.924 32.8664 103.392 28.3805 98.461 46.2464C94.1004 62.0561 93.6317 63.0731 91.793 70.4473C90.0815 77.3 88.668 82.9471 87.378 90.2843C85.8338 99.115 84.8627 108.039 84.4709 117" stroke="#EB5B26" stroke-width="6" stroke-linecap="round" stroke-linejoin="round"/>
<path d="M85.6364 42.2268C84.5427 41.9387 83.0116 41.3329 82.3117 39.9811C80.6275 36.727 84.9073 31.4858 87.0508 28.8744C88.6986 26.8614 91.1666 24.2795 95.399 21.3172C97.1197 20.1131 101.097 17.4722 113.444 12.4156C118.096 10.5097 120.422 9.55677 123.488 8.52256C125.872 7.71735 152.411 -1.25075 156.476 5.50118C157.205 6.73116 157.569 9.05444 154.828 13.8488C154.514 14.2181 153.989 14.8534 153.333 15.6217C137.949 33.7204 126.524 42.8732 105.402 62.261C91.7936 74.7454 94.3418 72.9725 83.9813 82.2915C71.3315 93.6863 60.446 102.728 52.6775 109" stroke="#EB5B26" stroke-width="6" stroke-linecap="round" stroke-linejoin="round"/>
</svg>
