<svg width="105" height="53" viewBox="0 0 105 53" fill="none" xmlns="http://www.w3.org/2000/svg">
<path d="M7.28467 41.3054C8.2315 39.8628 9.3394 38.5327 10.587 37.3406C13.8162 34.2574 16.5316 33.5144 21.1664 30.736C23.4727 29.3494 25.6804 27.805 27.7736 26.1138" stroke="white" stroke-width="3" stroke-linecap="round" stroke-linejoin="round"/>
<path d="M2 47.91L6.62474 41.9654L27.761 16.2043C25.0255 22.3027 22.7584 26.9173 21.1539 30.076C19.5015 33.3355 17.6601 36.8041 16.5317 41.9654C16.2444 43.274 16.0241 44.5965 15.8717 45.9276" stroke="white" stroke-width="3" stroke-linecap="round" stroke-linejoin="round"/>
<path d="M26.4387 34.0384L23.1364 45.2678C23.4235 44.5449 25.5444 39.2778 28.0835 35.8672C28.7284 34.9981 29.5067 34.2399 31.0634 32.7185C32.1289 31.6757 32.6604 31.2424 33.0433 31.3961C33.5471 31.6052 33.5471 32.7739 33.5193 33.6052C33.2801 38.9352 30.9803 44.1847 30.9752 44.1695L31.0634 43.9479" stroke="white" stroke-width="3" stroke-linecap="round" stroke-linejoin="round"/>
<path d="M35.0256 40.6455C35.7264 40.2677 36.3901 39.825 37.008 39.3231C37.7216 38.7181 38.3838 38.055 38.9879 37.3407C40.4237 35.7664 41.1391 34.9779 41.333 34.7261C42.2544 33.4973 43.0162 32.1566 43.6 30.7361C43.6454 30.7562 42.8746 32.7512 39.6378 40.6455C39.3683 41.3231 38.9098 42.4843 38.3153 43.9478C37.6629 45.5599 37.5395 45.832 37.6554 45.9277C38.0886 46.2854 41.1063 43.5322 43.3784 40.8647C44.3608 39.7135 45.0963 38.7034 45.5824 38.0032" stroke="white" stroke-width="3" stroke-linecap="round" stroke-linejoin="round"/>
<path d="M42.2926 28.0938L43.6125 27.4339L44.9324 26.7739" stroke="white" stroke-width="3" stroke-linecap="round" stroke-linejoin="round"/>
<path d="M66.7312 6.29741C67.4382 5.93259 68.1023 5.48987 68.711 4.97749C70.0612 3.83894 70.4743 2.90442 70.6934 2.9951C71.1116 3.17143 69.9377 6.77349 68.711 10.9221C67.8093 14.0003 68.3987 12.2295 66.4163 19.2875C64.653 25.5369 64.4742 25.9374 63.7336 28.8594C63.046 31.5672 62.4742 33.8015 61.9578 36.7008C61.3357 40.1902 60.9444 43.7167 60.7865 47.2576" stroke="white" stroke-width="3" stroke-linecap="round" stroke-linejoin="round"/>
<path d="M61.4465 17.5269C61.0032 17.411 60.3936 17.1742 60.1115 16.6377C59.439 15.3505 61.1543 13.2825 62.0158 12.2422C62.9856 11.0931 64.1126 10.0866 65.3635 9.25221C66.0511 8.77613 67.6456 7.74085 72.5978 5.72572C74.4618 4.97004 75.3938 4.59472 76.6281 4.18414C77.5853 3.86675 88.2151 0.317591 89.8524 2.99017C90.1497 3.47632 90.2857 4.39573 89.1925 6.29247C89.0665 6.44109 88.8549 6.69046 88.593 6.99273C82.4216 14.1591 77.8397 17.7813 69.3811 25.4514C63.9252 30.3935 64.9453 29.6882 60.7941 33.3784C55.721 37.8873 51.3583 41.4667 48.2449 43.9579" stroke="white" stroke-width="3" stroke-linecap="round" stroke-linejoin="round"/>
<path d="M75.9784 39.3232L77.2983 36.6808C77.6887 35.5549 77.4595 34.9705 77.2983 34.701C76.4368 33.2601 73.0413 33.4213 70.87 34.8571C69.9463 35.4827 69.2021 36.3389 68.7113 37.3408C67.8622 38.976 67.4101 40.7881 67.3914 42.6305C67.3914 44.5046 67.88 45.0915 68.0513 45.2729C68.807 46.0814 70.3183 46.1696 71.3536 45.9328C73.0463 45.55 74.0514 44.1696 75.2378 42.5676C75.5891 42.0641 75.9072 41.5382 76.19 40.9932C76.4418 40.4894 76.4041 40.4441 76.6383 39.9857C77.108 39.0544 77.743 38.2163 78.5124 37.5121C78.5124 37.5121 78.4948 37.5448 78.3965 37.6808C76.9381 40.4164 76.6333 41.7514 76.6333 41.7514C76.4192 42.7111 76.1774 43.7892 76.7693 44.6885C77.132 45.2262 77.686 45.6054 78.3184 45.7489C80.1245 46.1117 81.7946 43.7086 85.0717 40.0436C86.9936 37.8924 86.3714 38.696 87.0868 37.895C87.0868 37.895 97.432 26.3709 102.306 17.1063V17.0836C102.697 16.2977 102.925 15.4409 102.976 14.5647C103.016 13.8594 103.072 12.9123 102.528 12.5496C102.024 12.212 101.268 12.537 100.399 12.9073C99.7867 13.1779 99.2132 13.5295 98.694 13.9526C98.0287 14.5105 97.425 15.138 96.893 15.8242C95.9962 16.9048 95.3967 17.7788 95.3363 17.8695C91.9257 22.8872 89.17 28.7613 89.17 28.7613C88.1221 30.9981 87.5604 32.4289 87.3261 33.0435C86.6838 34.7161 86.2102 36.1846 85.8677 37.3483C85.0062 40.3182 84.3387 42.4995 83.8853 43.9555C83.4822 45.2527 83.1296 46.3333 83.4722 47.6658C83.5376 47.9354 84.0868 49.9178 85.6006 50.4946C87.243 51.1193 88.7065 49.5802 95.3136 45.6583C96.0693 45.2149 96.6814 44.8547 97.097 44.6154" stroke="white" stroke-width="3" stroke-linecap="round" stroke-linejoin="round"/>
</svg>
