<svg width="48" height="48" viewBox="0 0 48 48" fill="none" xmlns="http://www.w3.org/2000/svg">
<path fill-rule="evenodd" clip-rule="evenodd" d="M17.6207 6.54545V7.80821C11.0318 10.4555 6.42849 19.1504 6.59553 26.6861L6.59548 30.8714C3.22249 35.1199 3.42095 41.4545 11.8361 41.4545H17.6207C17.6207 43.1904 18.3112 44.8553 19.5404 46.0829C20.7693 47.3105 22.4362 48 24.1745 48C25.9127 48 27.5796 47.3105 28.8086 46.0829C30.0375 44.8553 30.7281 43.1904 30.7281 41.4545H36.5287C44.9278 41.4545 45.0495 35.1067 41.6769 30.8582L41.7708 26.6918C41.9405 19.1475 37.3282 10.4447 30.7281 7.80118V6.54545C30.7281 4.80948 30.0375 3.14462 28.8086 1.91712C27.5796 0.689616 25.9127 0 24.1745 0C22.4362 0 20.7693 0.689616 19.5404 1.91712C18.3112 3.14462 17.6207 4.80948 17.6207 6.54545ZM26.359 6.54545C26.359 6.54545 26.3575 6.63394 26.3548 6.6779C25.6435 6.59047 24.9186 6.54545 24.1833 6.54545C23.4418 6.54545 22.7111 6.59122 21.9941 6.68004C21.9912 6.63538 21.9899 6.59047 21.9899 6.54545C21.9899 5.96681 22.2199 5.41186 22.6298 5.00268C23.0393 4.5935 23.5951 4.36363 24.1745 4.36363C24.7538 4.36363 25.3094 4.5935 25.7192 5.00268C26.1287 5.41186 26.359 5.96681 26.359 6.54545ZM21.9899 41.4545C21.9899 42.0331 22.2199 42.5882 22.6298 42.9974C23.0393 43.4064 23.5951 43.6363 24.1745 43.6363C24.7538 43.6363 25.3094 43.4064 25.7192 42.9974C26.1287 42.5882 26.359 42.0331 26.359 41.4545H21.9899ZM36.5287 37.0908C38.395 37.0908 39.4018 34.9044 38.1873 33.4891C37.5969 32.8015 37.2826 31.9267 37.303 31.0286L37.4027 26.5939C37.5695 19.186 31.6023 10.9091 24.1833 10.9091C16.7658 10.9091 10.7994 19.1832 10.9636 26.5894L11.062 31.0294C11.0819 31.9272 10.7675 32.8018 10.1775 33.4891C8.96285 34.9044 9.96973 37.0908 11.8361 37.0908H36.5287ZM36.4415 2.88485C37.2121 1.79551 38.7384 1.52458 39.8503 2.27971C42.6617 4.1891 46.0333 8.76835 47.8741 14.1902C48.3011 15.4479 47.6066 16.8067 46.3231 17.2251C45.0392 17.6435 43.6525 16.9631 43.2253 15.7054C41.6084 10.9428 38.7495 7.37254 37.0592 6.22459C35.9474 5.46946 35.6708 3.97421 36.4415 2.88485ZM8.14981 2.27971C9.26168 1.52458 10.7878 1.79551 11.5585 2.88485C12.3293 3.97421 12.0527 5.46946 10.9409 6.22459C9.25063 7.37254 6.39165 10.9428 4.77459 15.7054C4.34755 16.9631 2.96072 17.6435 1.67702 17.2251C0.393321 16.8067 -0.301135 15.4479 0.1259 14.1902C1.96681 8.76835 5.33843 4.1891 8.14981 2.27971Z" fill="white"/>
</svg>
