<svg width="75" height="83" viewBox="0 0 75 83" fill="none" xmlns="http://www.w3.org/2000/svg">
<path d="M44.9393 58.9667C46.9924 59.7184 49.4576 58.1381 50.4461 55.4372C51.4341 52.7363 50.5708 49.938 48.518 49.1868C46.4644 48.4361 43.9995 50.0159 43.011 52.7168C42.023 55.4177 42.8863 58.216 44.9393 58.9667Z" fill="white"/>
<path d="M37.138 63.2743C39.2857 63.0881 40.8282 60.6475 40.5841 57.8215C40.3395 54.9963 38.4001 52.8568 36.2524 53.0419C34.1048 53.2287 32.5624 55.6697 32.8068 58.4953C33.0514 61.3204 34.9906 63.46 37.138 63.2743Z" fill="white"/>
<path d="M53.8643 63.1785C55.7493 64.2864 58.4578 63.1737 59.9146 60.6943C61.3713 58.2133 61.0241 55.3061 59.1388 54.1982C57.2539 53.0913 54.5448 54.2045 53.0883 56.6839C51.6317 59.1645 51.9794 62.0716 53.8643 63.1785Z" fill="white"/>
<path d="M63.9602 66.1177C62.7381 64.3421 59.8538 64.2049 57.5175 65.8121C55.1806 67.4203 54.2776 70.1627 55.4994 71.9388C56.7212 73.7143 59.6057 73.8517 61.9421 72.2439C64.2782 70.6362 65.1818 67.8938 63.9602 66.1177Z" fill="white"/>
<path d="M51.4107 66.453C51.1776 64.84 50.1889 63.3691 48.6085 62.623C47.0285 61.8776 45.2642 62.0496 43.8714 62.8945C42.3318 63.8288 41.347 65.0493 40.021 65.5828C38.6952 66.1162 34.9816 64.5275 32.6695 68.7261C31.0365 71.6916 32.5356 75.4406 35.5969 76.8851C37.9237 77.9831 39.7653 77.8605 41.1173 78.4981C42.4691 79.1357 43.5452 80.6356 45.8718 81.7335C48.9331 83.1781 52.7798 81.9524 54.0309 78.8064C55.8022 74.3526 52.2145 72.496 51.7832 71.1334C51.3522 69.771 51.6685 68.2348 51.4107 66.453Z" fill="white"/>
<path d="M12.9393 13.9667C14.9924 14.7184 17.4576 13.1381 18.4461 10.4372C19.4341 7.73626 18.5708 4.93804 16.518 4.18676C14.4644 3.43606 11.9995 5.01591 11.011 7.71679C10.023 10.4177 10.8863 13.216 12.9393 13.9667Z" fill="white"/>
<path d="M5.13801 18.2743C7.28573 18.0881 8.82821 15.6475 8.58412 12.8215C8.33951 9.99635 6.40006 7.85676 4.25234 8.04193C2.10481 8.22872 0.562398 10.6697 0.806749 13.4953C1.05143 16.3204 2.99054 18.46 5.13801 18.2743Z" fill="white"/>
<path d="M21.8643 18.1785C23.7493 19.2864 26.4578 18.1737 27.9146 15.6943C29.3713 13.2133 29.0241 10.3061 27.1388 9.19821C25.2539 8.09131 22.5448 9.20453 21.0883 11.6839C19.6317 14.1645 19.9794 17.0716 21.8643 18.1785Z" fill="white"/>
<path d="M31.9602 21.1177C30.7381 19.3421 27.8538 19.2049 25.5175 20.8121C23.1806 22.4203 22.2776 25.1627 23.4994 26.9388C24.7212 28.7143 27.6057 28.8517 29.9421 27.2439C32.2782 25.6362 33.1818 22.8938 31.9602 21.1177Z" fill="white"/>
<path d="M19.4107 21.453C19.1776 19.84 18.1889 18.3691 16.6085 17.623C15.0285 16.8776 13.2642 17.0496 11.8714 17.8945C10.3318 18.8288 9.347 20.0493 8.02101 20.5828C6.69521 21.1162 2.98163 19.5275 0.669509 23.7261C-0.963469 26.6916 0.535582 30.4406 3.5969 31.8851C5.92374 32.9831 7.76533 32.8605 9.1173 33.4981C10.4691 34.1357 11.5452 35.6356 13.8718 36.7335C16.9331 38.1781 20.7798 36.9524 22.0309 33.8064C23.8022 29.3526 20.2145 27.496 19.7832 26.1334C19.3522 24.771 19.6685 23.2348 19.4107 21.453Z" fill="white"/>
<path d="M67.9393 9.96666C69.9924 10.7184 72.4576 9.13809 73.4461 6.43721C74.4341 3.73626 73.5708 0.938039 71.518 0.186756C69.4644 -0.563942 66.9995 1.01591 66.011 3.71679C65.023 6.41774 65.8863 9.21596 67.9393 9.96666Z" fill="white"/>
<path d="M60.138 14.2743C62.2857 14.0881 63.8282 11.6475 63.5841 8.82146C63.3395 5.99635 61.4001 3.85676 59.2524 4.04193C57.1048 4.22872 55.5624 6.6697 55.8068 9.49533C56.0514 12.3204 57.9906 14.46 60.138 14.2743Z" fill="white"/>
<path d="M76.8643 14.1785C78.7493 15.2864 81.4578 14.1737 82.9146 11.6943C84.3713 9.2133 84.0241 6.30609 82.1388 5.19821C80.2539 4.09131 77.5448 5.20453 76.0883 7.68391C74.6317 10.1645 74.9794 13.0716 76.8643 14.1785Z" fill="white"/>
<path d="M74.4107 17.453C74.1776 15.84 73.1889 14.3691 71.6085 13.623C70.0285 12.8776 68.2642 13.0496 66.8714 13.8945C65.3318 14.8288 64.347 16.0493 63.021 16.5828C61.6952 17.1162 57.9816 15.5275 55.6695 19.7261C54.0365 22.6916 55.5356 26.4406 58.5969 27.8851C60.9237 28.9831 62.7653 28.8605 64.1173 29.4981C65.4691 30.1357 66.5452 31.6356 68.8718 32.7335C71.9331 34.1781 75.7798 32.9524 77.0309 29.8064C78.8022 25.3526 75.2145 23.496 74.7832 22.1334C74.3522 20.771 74.6685 19.2348 74.4107 17.453Z" fill="white"/>
</svg>
